<svg xmlns="http://www.w3.org/2000/svg" viewBox="0 0 31.45 31.45"><defs><style>.cls-1{fill:#76592d;stroke:#ffd980;stroke-width:0.3px;}.cls-1,.cls-11,.cls-12,.cls-13,.cls-14,.cls-2,.cls-3,.cls-5,.cls-6,.cls-7,.cls-8,.cls-9{stroke-miterlimit:10;}.cls-2{fill:#e25027;}.cls-2,.cls-5,.cls-6{stroke:#000;}.cls-11,.cls-12,.cls-13,.cls-2,.cls-3,.cls-5,.cls-6,.cls-7,.cls-8,.cls-9{stroke-width:0.5px;}.cls-3{fill:#db765c;}.cls-11,.cls-12,.cls-13,.cls-14,.cls-3,.cls-7,.cls-8,.cls-9{stroke:#1d1d1b;}.cls-14,.cls-4{fill:#1d1d1b;}.cls-5{fill:#92bd31;}.cls-6,.cls-9{fill:none;}.cls-7{fill:#83a250;}.cls-8{fill:#5c8025;}.cls-10{fill:#773600;}.cls-11{fill:#ca7f49;}.cls-12{fill:#d91f00;}.cls-13{fill:#208000;}.cls-14{stroke-width:0.2px;}</style></defs><g id="Calque_2" data-name="Calque 2"><g id="Calque_1-2" data-name="Calque 1"><circle class="cls-1" cx="15.72" cy="15.72" r="15.57"/><path class="cls-2" d="M13.72,10.3c0,.11,0,.32.06.6V11a20,20,0,0,1-.17,3.57A8.66,8.66,0,0,1,11.06,16a13.66,13.66,0,0,1-1.33-4.68,1.19,1.19,0,0,1,.06-.53c.3-.91.67-1,.67-1a3,3,0,0,1,3.15.25A.36.36,0,0,1,13.72,10.3Z"/><ellipse class="cls-3" cx="12.31" cy="15.16" rx="1.53" ry="0.69" transform="translate(-6.65 10.48) rotate(-37.05)"/><path class="cls-4" d="M13.66,10.73a2.29,2.29,0,0,0-.53-.29,1.14,1.14,0,0,0-.45,0,.28.28,0,0,0-.17.07.27.27,0,0,0-.08.18.25.25,0,0,0,.25.25h.22l.11,0,0,0c.05,0-.06,0,0,0l.06,0a2.27,2.27,0,0,1,.32.22.27.27,0,0,0,.2,0,.28.28,0,0,0,.15-.11.28.28,0,0,0-.09-.35Z"/><path class="cls-4" d="M13.81,12.47a1.85,1.85,0,0,0-1.42-.18.27.27,0,0,0-.17.31.26.26,0,0,0,.31.18l.13,0h.4l.07,0,.15,0,.15.06h0l.05,0,.08,0a.25.25,0,0,0,.34-.09.24.24,0,0,0-.09-.34Z"/><path class="cls-4" d="M13.73,13.37a1.28,1.28,0,0,0-1-.12.25.25,0,0,0-.17.3.25.25,0,0,0,.31.18l.15,0h.12a1.58,1.58,0,0,1,.31.09l-.06,0,.1.05a.25.25,0,0,0,.25-.43Z"/><path class="cls-4" d="M11.54,13.86a1.45,1.45,0,0,0-1,.5.23.23,0,0,0-.08.17.23.23,0,0,0,.08.18.22.22,0,0,0,.17.07.24.24,0,0,0,.18-.07l.14-.15h0l.05,0,.1-.06,0,0h0l.11,0a1.22,1.22,0,0,1,.26-.06h0a.3.3,0,0,0,.18-.08.22.22,0,0,0,.07-.17.23.23,0,0,0-.07-.18.24.24,0,0,0-.18-.07Z"/><path class="cls-4" d="M11.24,11.35a1.52,1.52,0,0,0-1,.5.31.31,0,0,0-.07.18.26.26,0,0,0,.07.18.29.29,0,0,0,.18.07.22.22,0,0,0,.17-.07.71.71,0,0,1,.15-.15h0s0,0,0,0l0,0,.1-.06.05,0h0s0,0,0,0l.11,0,.25-.05h0a.28.28,0,0,0,.17-.07.27.27,0,0,0,.08-.18.33.33,0,0,0-.08-.18.22.22,0,0,0-.17-.07Z"/><path class="cls-5" d="M12.75,9.59,13.05,8s.12-.24-.13-.28a3.11,3.11,0,0,0-.76,0c-.13,0,0-.83,0-.83s.07-.22-.15-.23a1.77,1.77,0,0,0-1.22.14.23.23,0,0,0-.14.27c.05.19.22.67.22.67s-1.21.13-1,.54.78,1.48.78,1.48A3.47,3.47,0,0,1,12.75,9.59Z"/><line class="cls-6" x1="12.11" y1="7.6" x2="12.03" y2="9.4"/><line class="cls-6" x1="10.84" y1="7.71" x2="11.37" y2="9.51"/><path class="cls-2" d="M7.36,13.92l.33.33,0,0a15.47,15.47,0,0,0,2.21,1.59,6.69,6.69,0,0,0,2.11-.8,10.37,10.37,0,0,0-2.15-3,1,1,0,0,0-.35-.22c-.68-.25-.9-.07-.9-.07a2.29,2.29,0,0,0-1.35,2A.24.24,0,0,0,7.36,13.92Z"/><ellipse class="cls-3" cx="10.92" cy="15.4" rx="1.17" ry="0.53" transform="translate(-3.46 3.17) rotate(-14.28)"/><path class="cls-4" d="M8.07,14.32a1.79,1.79,0,0,1,0-.23v.07A.59.59,0,0,1,8.13,14l0,.06a.75.75,0,0,1,.07-.12l0,.05.09-.1a.27.27,0,0,0,.08-.18.26.26,0,0,0-.43-.18,2.09,2.09,0,0,0-.14.17.56.56,0,0,0-.09.17.94.94,0,0,0,0,.16,1.73,1.73,0,0,0,0,.32.25.25,0,0,0,.25.25.26.26,0,0,0,.25-.25Z"/><path class="cls-4" d="M9.12,15.26A1.4,1.4,0,0,1,9.21,15l0,0c.05-.09.1-.18.16-.27l0,.05a1.53,1.53,0,0,1,.18-.18l-.05,0,.07-.05a.25.25,0,0,0-.25-.43,1.46,1.46,0,0,0-.61,1,.25.25,0,0,0,0,.19.24.24,0,0,0,.15.11.25.25,0,0,0,.31-.17Z"/><path class="cls-4" d="M9.69,15.65a.7.7,0,0,1,.06-.19l0,.06a.52.52,0,0,1,.1-.18l0,.05.12-.12-.05,0,.05,0a.26.26,0,0,0,.09-.34.27.27,0,0,0-.15-.11.27.27,0,0,0-.2,0,1.09,1.09,0,0,0-.44.68.25.25,0,0,0,0,.19.3.3,0,0,0,.15.12.28.28,0,0,0,.2,0,.22.22,0,0,0,.11-.15Z"/><path class="cls-4" d="M11,14.54l.12-.11-.05,0a1,1,0,0,1,.23-.13l-.06,0,.21-.06h0a.25.25,0,0,0,.25-.25.25.25,0,0,0-.25-.25,1.19,1.19,0,0,0-.84.38.25.25,0,0,0,0,.35.26.26,0,0,0,.36,0Z"/><path class="cls-4" d="M9.68,13.17a.69.69,0,0,1,.13-.11l-.06,0A1.16,1.16,0,0,1,10,13l-.06,0a.66.66,0,0,1,.2-.06h0a.24.24,0,0,0,.25-.25.27.27,0,0,0-.25-.25,1.22,1.22,0,0,0-.84.38.26.26,0,0,0,0,.36.25.25,0,0,0,.35,0Z"/><path class="cls-5" d="M7.4,13l-1.07-.57s-.2,0-.11-.2a3,3,0,0,1,.33-.48c.08-.06-.48-.41-.48-.41s-.16-.07-.06-.2.29-.57.66-.66a.17.17,0,0,1,.23,0c.09.12.3.45.3.45s.65-.66.79-.34.51,1.17.51,1.17A2.67,2.67,0,0,0,7.4,13Z"/><line class="cls-6" x1="6.52" y1="11.68" x2="7.64" y2="12.49"/><line class="cls-6" x1="7.2" y1="10.98" x2="8.01" y2="12.15"/><path class="cls-7" d="M16.14,16.21l-2.47-.47A7.88,7.88,0,0,0,13,11.36l-.58-1.1,1.2-.27a18.22,18.22,0,0,1,.86,2.64c0,.45.46-1.91.46-1.91l.84.18-.35,1.76a10.75,10.75,0,0,0,1.38-1.92c0-.32,1.09,1.08,1.09,1.08S16.64,12.29,16.14,16.21Z"/><path class="cls-8" d="M20,10.51a1.7,1.7,0,0,1,0,.71,1.79,1.79,0,0,1-3.54-.09,2,2,0,0,1-1,.07,2,2,0,0,1-1.39-1,1.6,1.6,0,0,1-3-.88,1.11,1.11,0,0,1,.08-.3,2.12,2.12,0,0,1,1.51-3.84s0-.08,0-.12a1.65,1.65,0,0,1,1.91-1.33,1.55,1.55,0,0,1,.51.18,2.27,2.27,0,0,1,4,1.82,2.38,2.38,0,0,1-.28.76l.11,0a.88.88,0,0,1,.64.47,1.88,1.88,0,0,1,.71,0A1.79,1.79,0,0,1,20,10.51Z"/><path class="cls-9" d="M11.2,9.05a1.43,1.43,0,0,0,1.61.07A1.56,1.56,0,0,1,11.2,9.05Z"/><path class="cls-9" d="M12.55,5.15a2.54,2.54,0,0,1,1.39.56C14.29,6.16,13.83,5.18,12.55,5.15Z"/><path class="cls-9" d="M15.09,3.9s.6.27.65.64S15.89,4.21,15.09,3.9Z"/><path class="cls-9" d="M18.81,6.47a1.66,1.66,0,0,1-1.47,1C17.28,7.5,18.08,7.72,18.81,6.47Z"/><path class="cls-9" d="M20,10.5a1.64,1.64,0,0,1-1.06-.21A2.17,2.17,0,0,0,20,10.5Z"/><rect class="cls-10" x="6.57" y="18.19" width="17.92" height="1.98"/><rect class="cls-11" x="5.89" y="14.13" width="19.67" height="4.63"/><rect class="cls-11" x="5.89" y="19.57" width="19.67" height="4.63"/><path class="cls-12" d="M16.87,14.15s.66-3.66,3.8-3.45a4.28,4.28,0,0,0,2.59.87c1.36,0,1.15,2.54,1.15,2.54Z"/><path class="cls-13" d="M22.26,10.61a2.5,2.5,0,0,1,3.14-.85A2.21,2.21,0,0,1,22.26,10.61Z"/><path class="cls-14" d="M22.25,10,22,11.43c0,.05-.07.08-.14.07h0a.12.12,0,0,1-.11-.11L22.08,10c0-.05,0-.12.08-.11h0C22.25,9.91,22.26,10,22.25,10Z"/><circle class="cls-4" cx="7.55" cy="15.41" r="0.37"/><circle class="cls-4" cx="7.55" cy="17.58" r="0.37"/><circle class="cls-4" cx="23.98" cy="15.41" r="0.37"/><circle class="cls-4" cx="23.98" cy="17.58" r="0.37"/><circle class="cls-4" cx="7.55" cy="20.88" r="0.37"/><circle class="cls-4" cx="7.55" cy="23.05" r="0.37"/><circle class="cls-4" cx="23.98" cy="20.88" r="0.37"/><circle class="cls-4" cx="23.98" cy="23.05" r="0.37"/><line class="cls-9" x1="6.57" y1="18.72" x2="6.57" y2="19.47"/><line class="cls-9" x1="24.68" y1="18.72" x2="24.68" y2="19.47"/></g></g></svg>