<svg xmlns="http://www.w3.org/2000/svg" xmlns:xlink="http://www.w3.org/1999/xlink" viewBox="0 0 31.45 31.45"><defs><style>.cls-1,.cls-5,.cls-9{fill:#a46116;}.cls-1,.cls-10,.cls-11,.cls-3,.cls-4,.cls-8,.cls-9{stroke:#000;}.cls-1,.cls-10,.cls-11,.cls-2,.cls-3,.cls-4,.cls-8,.cls-9{stroke-miterlimit:10;}.cls-1,.cls-3,.cls-4,.cls-8{stroke-width:0.5px;}.cls-2{fill:#76592d;stroke:#ffd980;stroke-width:0.3px;}.cls-3{fill:#61a830;}.cls-4{fill:#8fd863;}.cls-6{clip-path:url(#clip-path);}.cls-10,.cls-11,.cls-7{fill:#c6741b;}.cls-8{fill:none;}.cls-10,.cls-9{stroke-width:0.2px;}.cls-11{stroke-width:0.1px;}</style><clipPath id="clip-path"><path class="cls-1" d="M24.83,23.08a1.48,1.48,0,0,1-1.48,1.48,1.49,1.49,0,0,1-1.09-.48,2.72,2.72,0,0,1-2.32,1.3,2.68,2.68,0,0,1-2-.93,3.65,3.65,0,0,1-3.59-.13,2.62,2.62,0,0,1-4.25-.39,1.51,1.51,0,0,1-1.3.72,1.54,1.54,0,1,1,1-2.69,2.62,2.62,0,0,1,2.55-2,3,3,0,0,1,.52.05A3.59,3.59,0,0,1,19.57,20l.37,0a2.7,2.7,0,0,1,2.59,1.91,1.48,1.48,0,0,1,2.3,1.23Z"/></clipPath></defs><g id="Calque_2" data-name="Calque 2"><g id="Calque_1-2" data-name="Calque 1"><circle class="cls-2" cx="15.72" cy="15.72" r="15.57"/><path class="cls-3" d="M16.82,11.35s1.61.24-2.18-3.42A6.35,6.35,0,0,0,9.41,6.28c.16,3.66,1.47,5,1.47,5s1.83,2.86,4.77,2.78S16.82,11.35,16.82,11.35Z"/><path class="cls-4" d="M21.87,12a6.49,6.49,0,0,1-4.79,2.12c-.62.8-.16,4-.16,4s-1.15,1.81-1.48-.27A12.51,12.51,0,0,1,16.07,13h0c.08-1.82,1.66-3.9,2.72-4.87C21.06,6,23.9,5.89,24.08,6.5,24.31,7.28,23.81,9.58,21.87,12Z"/><rect x="15.59" y="9.98" width="8.94" height="0.32" rx="0.14" transform="translate(-1.45 16.67) rotate(-43.71)"/><rect x="17.7" y="10.12" width="2.38" height="0.28" rx="0.11" transform="translate(7.75 28.65) rotate(-87.3)"/><rect x="19.41" y="8.39" width="2.38" height="0.28" rx="0.11" transform="translate(11.11 28.71) rotate(-87.3)"/><rect x="18.59" y="11.45" width="2.38" height="0.28" rx="0.11" transform="translate(39.55 23.18) rotate(180)"/><rect x="20.24" y="9.88" width="2.38" height="0.28" rx="0.11" transform="translate(42.86 20.04) rotate(180)"/><rect x="9.63" y="10.04" width="7.51" height="0.32" rx="0.16" transform="translate(11.13 -6.48) rotate(45)"/><rect x="13.17" y="10.24" width="2.64" height="0.28" rx="0.14" transform="translate(22.15 -5.71) rotate(79.83)"/><rect x="12.33" y="11.47" width="2.64" height="0.28" rx="0.14"/><rect x="10.71" y="9.88" width="2.64" height="0.28" rx="0.14"/><rect x="11.58" y="8.61" width="2.64" height="0.28" rx="0.14" transform="translate(20.1 -5.08) rotate(83.34)"/><path class="cls-5" d="M24.83,23.08a1.48,1.48,0,0,1-1.48,1.48,1.49,1.49,0,0,1-1.09-.48,2.72,2.72,0,0,1-2.32,1.3,2.68,2.68,0,0,1-2-.93,3.65,3.65,0,0,1-3.59-.13,2.62,2.62,0,0,1-4.25-.39,1.51,1.51,0,0,1-1.3.72,1.54,1.54,0,1,1,1-2.69,2.62,2.62,0,0,1,2.55-2,3,3,0,0,1,.52.05A3.59,3.59,0,0,1,19.57,20l.37,0a2.7,2.7,0,0,1,2.59,1.91,1.48,1.48,0,0,1,2.3,1.23Z"/><g class="cls-6"><circle class="cls-7" cx="21.66" cy="23.08" r="3.47"/><circle class="cls-7" cx="18.07" cy="22.72" r="3.59"/></g><path class="cls-8" d="M24.83,23.08a1.48,1.48,0,0,1-1.48,1.48,1.49,1.49,0,0,1-1.09-.48,2.72,2.72,0,0,1-2.32,1.3,2.68,2.68,0,0,1-2-.93,3.65,3.65,0,0,1-3.59-.13,2.62,2.62,0,0,1-4.25-.39,1.51,1.51,0,0,1-1.3.72,1.54,1.54,0,1,1,1-2.69,2.62,2.62,0,0,1,2.55-2,3,3,0,0,1,.52.05A3.59,3.59,0,0,1,19.57,20l.37,0a2.7,2.7,0,0,1,2.59,1.91,1.48,1.48,0,0,1,2.3,1.23Z"/><circle class="cls-5" cx="17.52" cy="21.87" r="0.6"/><circle class="cls-5" cx="20.24" cy="23.44" r="0.66"/><circle class="cls-9" cx="10.66" cy="17.79" r="0.76"/><circle class="cls-9" cx="9.52" cy="19.18" r="0.3"/><circle class="cls-5" cx="16.1" cy="23.78" r="0.18"/><circle class="cls-5" cx="16.92" cy="20.15" r="0.3"/><circle class="cls-5" cx="19.79" cy="21.18" r="0.27"/><circle class="cls-5" cx="22.35" cy="22.54" r="0.21"/><circle class="cls-10" cx="20.84" cy="18.01" r="0.79"/><circle class="cls-10" cx="22.48" cy="18.28" r="0.33"/><circle class="cls-11" cx="22.39" cy="19.43" r="0.21"/></g></g></svg>