<svg xmlns="http://www.w3.org/2000/svg" viewBox="0 0 31.45 31.45"><defs><style>.cls-1{fill:#76592d;stroke:#ffd180;stroke-width:0.3px;}.cls-1,.cls-10,.cls-11,.cls-12,.cls-13,.cls-14,.cls-16,.cls-17,.cls-18,.cls-19,.cls-2,.cls-20,.cls-4,.cls-5,.cls-6,.cls-7,.cls-8,.cls-9{stroke-miterlimit:10;}.cls-2{fill:#ff3115;stroke-width:0.4px;}.cls-11,.cls-12,.cls-13,.cls-14,.cls-16,.cls-17,.cls-18,.cls-19,.cls-2,.cls-20,.cls-4,.cls-5,.cls-6,.cls-8{stroke:#1d1d1b;}.cls-19,.cls-3{fill:#1d1d1b;}.cls-16,.cls-4{fill:#cd7f49;}.cls-4,.cls-5{stroke-width:0.3px;}.cls-10,.cls-14,.cls-20,.cls-5{fill:none;}.cls-6{fill:#ff7c06;}.cls-19,.cls-20,.cls-6{stroke-width:0.2px;}.cls-7{fill:#e55027;}.cls-10,.cls-7,.cls-9{stroke:#000;}.cls-10,.cls-12,.cls-13,.cls-14,.cls-16,.cls-17,.cls-18,.cls-7,.cls-8,.cls-9{stroke-width:0.1px;}.cls-11,.cls-8{fill:#de765c;}.cls-9{fill:#95c031;}.cls-11{stroke-width:0.5px;}.cls-12{fill:#86a550;}.cls-13{fill:#5c8325;}.cls-15{fill:#773600;}.cls-17{fill:#dc1f00;}.cls-18{fill:#208100;}</style></defs><g id="Calque_2" data-name="Calque 2"><g id="Calque_1-2" data-name="Calque 1"><circle class="cls-1" cx="15.72" cy="15.72" r="15.57"/><path class="cls-2" d="M23.13,11.71c-1.49,0-1.75-1.3-1.76-2.09V9.35a1.65,1.65,0,0,1,0-.29h0s0,.11,0,.29a1.22,1.22,0,0,0,0,.27c0,.78-.32,2.09-1.82,2.09-2,0-1.78-2.34-1.74-2.65h-.07s.33,2.65-1.73,2.65-1.7-2.34-1.67-2.65h-.05s.33,2.65-1.75,2.65-1.73-2.34-1.7-2.65h-.09s.34,2.65-1.8,2.65S7.13,9.44,7.17,9.13V9.06L11,5.49H21.16l3.77,3.57S25.27,11.71,23.13,11.71Z"/><rect class="cls-3" x="7.17" y="8.88" width="17.77" height="0.36"/><rect class="cls-3" x="9.95" y="7.09" width="4.11" height="0.3" transform="translate(24.51 0.89) rotate(122)"/><rect class="cls-3" x="13.13" y="6.91" width="3.2" height="0.3" rx="0.11" transform="translate(23.76 -6.55) rotate(97.97)"/><rect class="cls-3" x="15.76" y="7.12" width="3.54" height="0.3" rx="0.11" transform="translate(21.37 -11.32) rotate(79.15)"/><rect class="cls-3" x="18.35" y="6.6" width="3.07" height="0.3" rx="0.11" transform="translate(15.2 -13.72) rotate(58.36)"/><rect class="cls-3" x="8.88" y="11.78" width="0.35" height="5.11"/><rect class="cls-3" x="23.05" y="11.81" width="0.35" height="5.11"/><polygon class="cls-4" points="6.73 16.96 25.48 16.96 25.48 18.66 24.93 18.66 24.93 24.49 7.2 24.49 7.2 18.59 6.72 18.59 6.73 16.96"/><line class="cls-5" x1="7.2" y1="18.58" x2="24.94" y2="18.65"/><line class="cls-5" x1="10.75" y1="24.44" x2="10.82" y2="18.62"/><line class="cls-5" x1="14.33" y1="24.46" x2="14.38" y2="18.64"/><line class="cls-5" x1="17.85" y1="24.46" x2="17.85" y2="18.68"/><line class="cls-5" x1="21.42" y1="24.46" x2="21.42" y2="18.66"/><circle class="cls-6" cx="19.34" cy="16.31" r="0.53"/><circle class="cls-6" cx="20.45" cy="16.31" r="0.53"/><circle class="cls-6" cx="19.86" cy="15.38" r="0.53"/><path class="cls-7" d="M12.22,13.86s0,.06,0,.13h0a4.54,4.54,0,0,1,0,.77,2,2,0,0,1-.56.32,2.88,2.88,0,0,1-.28-1,.2.2,0,0,1,0-.11c.06-.2.14-.21.14-.21a.65.65,0,0,1,.68.05A.05.05,0,0,1,12.22,13.86Z"/><ellipse class="cls-8" cx="11.91" cy="14.91" rx="0.33" ry="0.15" transform="translate(-6.58 10.19) rotate(-37.05)"/><path class="cls-9" d="M12,13.7l.06-.34a0,0,0,0,0,0-.06h-.16s0-.18,0-.18,0,0,0,0-.18,0-.26,0a.06.06,0,0,0,0,.06l0,.15s-.26,0-.22.11l.17.32A.76.76,0,0,1,12,13.7Z"/><line class="cls-10" x1="11.87" y1="13.27" x2="11.85" y2="13.66"/><line class="cls-10" x1="11.6" y1="13.3" x2="11.71" y2="13.68"/><path class="cls-7" d="M10.84,14.64l.08.07h0a2.84,2.84,0,0,0,.48.35,1.36,1.36,0,0,0,.46-.17,2.28,2.28,0,0,0-.47-.66l-.07,0c-.15-.06-.2,0-.2,0a.49.49,0,0,0-.29.43S10.84,14.63,10.84,14.64Z"/><ellipse class="cls-11" cx="11.61" cy="14.96" rx="0.25" ry="0.11" transform="translate(-3.33 3.33) rotate(-14.28)"/><path class="cls-9" d="M10.85,14.44l-.23-.12a0,0,0,0,1,0-.05s.05-.09.07-.1-.1-.09-.1-.09,0,0,0,0,.07-.12.15-.14a0,0,0,0,1,0,0l.07.1s.14-.14.17-.07l.11.25A.59.59,0,0,0,10.85,14.44Z"/><line class="cls-10" x1="10.66" y1="14.15" x2="10.9" y2="14.33"/><line class="cls-10" x1="10.81" y1="14" x2="10.99" y2="14.25"/><path class="cls-12" d="M12.74,15.13l-.53-.1a1.75,1.75,0,0,0-.14-.94l-.13-.24.26-.06a3.76,3.76,0,0,1,.19.57c0,.1.1-.41.1-.41l.18,0-.08.38a2.18,2.18,0,0,0,.3-.42c0-.07.24.23.24.23S12.85,14.29,12.74,15.13Z"/><path class="cls-13" d="M13.58,13.9a.38.38,0,0,1,0,.15.38.38,0,0,1-.76,0,.41.41,0,0,1-.22,0,.43.43,0,0,1-.3-.22.34.34,0,0,1-.38.21.35.35,0,0,1-.28-.4l0-.06a.48.48,0,0,1-.19-.46.46.46,0,0,1,.52-.37v0a.35.35,0,0,1,.41-.28.35.35,0,0,1,.11,0A.51.51,0,0,1,13,12.3a.5.5,0,0,1,.4.57.44.44,0,0,1-.06.16h0a.22.22,0,0,1,.14.11.38.38,0,0,1,.15,0,.4.4,0,0,1,.32.45A.38.38,0,0,1,13.58,13.9Z"/><path class="cls-14" d="M11.67,13.59a.32.32,0,0,0,.35,0A.31.31,0,0,1,11.67,13.59Z"/><path class="cls-14" d="M12,12.74s.23,0,.3.13S12.24,12.75,12,12.74Z"/><path class="cls-14" d="M12.51,12.47s.13.06.14.14S12.69,12.54,12.51,12.47Z"/><path class="cls-14" d="M13.32,13a.37.37,0,0,1-.32.22S13.16,13.3,13.32,13Z"/><path class="cls-14" d="M13.57,13.9a.38.38,0,0,1-.23-.05C13.2,13.79,13.46,13.93,13.57,13.9Z"/><rect class="cls-15" x="10.67" y="15.56" width="3.87" height="0.43"/><rect class="cls-16" x="10.53" y="14.68" width="4.25" height="1"/><rect class="cls-16" x="10.53" y="15.86" width="4.25" height="1"/><path class="cls-17" d="M12.9,14.69s.14-.79.82-.75a.89.89,0,0,0,.56.19c.29,0,.25.55.25.55Z"/><path class="cls-18" d="M14.06,13.92a.55.55,0,0,1,.68-.18A.48.48,0,0,1,14.06,13.92Z"/><path class="cls-19" d="M14.06,13.79,14,14.1s0,0,0,0h0l0,0,.06-.3,0,0h0S14.06,13.78,14.06,13.79Z"/><circle class="cls-3" cx="10.89" cy="14.96" r="0.08"/><circle class="cls-3" cx="10.89" cy="15.43" r="0.08"/><circle class="cls-3" cx="14.43" cy="14.96" r="0.08"/><circle class="cls-3" cx="14.43" cy="15.43" r="0.08"/><circle class="cls-3" cx="10.89" cy="16.14" r="0.08"/><circle class="cls-3" cx="10.89" cy="16.61" r="0.08"/><circle class="cls-3" cx="14.43" cy="16.14" r="0.08"/><circle class="cls-3" cx="14.43" cy="16.61" r="0.08"/><line class="cls-20" x1="10.67" y1="15.67" x2="10.67" y2="15.84"/><line class="cls-20" x1="14.58" y1="15.67" x2="14.58" y2="15.84"/></g></g></svg>